<?xml version="1.0" encoding="UTF-8"?>
<svg version="1.1" xmlns="http://www.w3.org/2000/svg" width="1254" height="1254">
<path d="M0 0 C413.82 0 827.64 0 1254 0 C1254 413.82 1254 827.64 1254 1254 C840.18 1254 426.36 1254 0 1254 C0 840.18 0 426.36 0 0 Z " fill="#FDFDFD" transform="translate(0,0)"/>
<path d="M0 0 C0.88155762 0.40041504 1.76311523 0.80083008 2.67138672 1.21337891 C21.72537097 9.87047733 39.84498548 20.00500532 57 32 C57.87446777 32.60642334 57.87446777 32.60642334 58.76660156 33.22509766 C84.52939106 51.13130093 109.75392615 71.98659385 130.16796875 95.890625 C132.32715141 98.37667753 134.5711348 100.77533092 136.8125 103.1875 C142.26818379 109.17886271 147.16848935 115.50828264 152 122 C152.4448877 122.59329102 152.88977539 123.18658203 153.34814453 123.79785156 C163.74797655 137.68153494 173.27929969 152.00488548 182 167 C182.35916504 167.61391602 182.71833008 168.22783203 183.08837891 168.86035156 C220.4915982 233.0521361 240.20712411 306.43662823 240.25 380.6875 C240.25101212 382.27011627 240.25101212 382.27011627 240.25204468 383.88470459 C240.17192664 463.27943434 219.84142127 544.09912989 176 611 C175.52498047 611.73573242 175.04996094 612.47146484 174.56054688 613.22949219 C164.91424835 628.15647192 154.45384549 642.40578945 143 656 C142.3517627 656.77561279 142.3517627 656.77561279 141.69042969 657.56689453 C129.14852546 672.55265817 115.93439937 687.47416871 101.07421875 700.203125 C98.79842282 702.1746243 96.59077333 704.21134395 94.375 706.25 C37.10374991 757.78543445 -38.17958886 792.08975507 -114.13623047 803.56640625 C-116.92775489 803.98906161 -119.71572617 804.43089167 -122.50390625 804.875 C-217.65767524 819.69196266 -319.94362711 792.90261419 -418.04980469 728.5078125 C-426.57403622 722.25644493 -434.9145042 715.81246029 -443 709 C-443.5170752 708.5678418 -444.03415039 708.13568359 -444.56689453 707.69042969 C-459.06940373 695.55297139 -473.56092751 682.8069272 -485.90234375 668.44140625 C-487.57012632 666.50031852 -489.25086122 664.57349044 -490.94140625 662.65234375 C-543.77741666 602.45550051 -577.93614992 527.83996209 -589.75 448.6875 C-589.85132233 448.01317932 -589.95264465 447.33885864 -590.05703735 446.644104 C-593.06323616 426.36350697 -594.35790902 406.24832569 -594.25 385.75 C-594.24656586 384.67572754 -594.24313171 383.60145508 -594.23959351 382.49462891 C-594.18008876 366.58811078 -593.98023751 350.80302425 -592 335 C-591.77401123 333.16501953 -591.77401123 333.16501953 -591.54345703 331.29296875 C-581.12642776 248.72416346 -547.15244773 170.14885048 -468.45254517 80.27731323 C-467.04273377 78.8555947 -465.63690321 77.42993212 -464.23120117 76.00415039 C-458.13092689 69.8962419 -451.73711462 64.38847731 -445 59 C-443.89837384 58.06498242 -442.80202586 57.12364867 -441.71484375 56.171875 C-432.91234008 48.49599275 -423.57364015 41.6799309 -414 35 C-413.35272949 34.54737793 -412.70545898 34.09475586 -412.03857422 33.62841797 C-380.38835614 11.64238861 -345.37056959 -4.57380334 -309 -17 C-307.77216797 -17.42490723 -307.77216797 -17.42490723 -306.51953125 -17.85839844 C-282.04772716 -26.26149246 -256.58026707 -31.39643063 -231 -35 C-229.85144531 -35.16516113 -228.70289063 -35.33032227 -227.51953125 -35.50048828 C-150.6596227 -46.09392209 -70.16576385 -32.51078513 0 0 Z " fill="#3D4639" transform="translate(804,235)"/>
<path d="M0 0 C2.90783877 0.63142231 5.82390722 1.18598886 8.74902344 1.73144531 C91.73376809 17.57556497 91.73376809 17.57556497 107.75683594 33.59863281 C107.85178327 35.9716415 107.88242913 38.31541984 107.87036133 40.6887207 C107.87050735 41.43013809 107.87065338 42.17155548 107.87080383 42.93544006 C107.87010459 45.39741902 107.86231168 47.85932325 107.85449219 50.32128906 C107.85262805 52.0237982 107.85120413 53.72630788 107.85020447 55.42881775 C107.84637896 59.91856354 107.8365484 64.40827719 107.82550049 68.89801025 C107.81528707 73.47594772 107.810707 78.05389037 107.80566406 82.63183594 C107.79492616 91.62078238 107.77784935 100.60970493 107.75683594 109.59863281 C105.36108398 109.28833008 105.36108398 109.28833008 102.75683594 108.59863281 C101.441192 106.20459221 100.49929911 104.07610212 99.56933594 101.53613281 C92.62620975 84.30244026 81.32305323 68.28856334 67.75683594 55.59863281 C66.09016927 53.93196615 64.4235026 52.26529948 62.75683594 50.59863281 C55.07223402 43.05147905 47.03824336 37.00589715 37.75683594 31.59863281 C37.10440918 31.21819824 36.45198242 30.83776367 35.77978516 30.44580078 C-4.32984924 7.41972062 -51.76691523 3.05644971 -96.24316406 14.59863281 C-140.87456151 27.04419996 -180.90455827 56.4228388 -208.24316406 93.59863281 C-209.07873314 94.70438006 -209.91466983 95.80984962 -210.75097656 96.91503906 C-239.05099031 134.8421506 -254.7162745 181.11817651 -261.24316406 227.59863281 C-261.45731159 229.04014266 -261.67209548 230.48155821 -261.88769531 231.92285156 C-264.32827397 249.00690217 -264.4846954 265.99737597 -264.49316406 283.22363281 C-264.49383881 284.45506012 -264.49451355 285.68648743 -264.49520874 286.95523071 C-264.47973205 304.72000696 -264.10740917 322.03643358 -261.24316406 339.59863281 C-261.06624023 340.75169922 -260.88931641 341.90476562 -260.70703125 343.09277344 C-258.13950205 359.65089785 -254.54327371 375.69830387 -249.24316406 391.59863281 C-249.13359375 390.89182373 -249.02402344 390.18501465 -248.91113281 389.45678711 C-246.80441483 376.15384788 -244.39257499 363.41328381 -240.18066406 350.59863281 C-236.22206617 338.35755686 -234.69100224 326.27828581 -233.61010742 313.52050781 C-230.77789846 280.87100041 -217.89641739 249.76504791 -192.46777344 228.08496094 C-190.62899685 226.61041486 -188.76393545 225.1865479 -186.86816406 223.78613281 C-186.31692871 223.3787085 -185.76569336 222.97128418 -185.19775391 222.55151367 C-173.56137203 214.31989965 -160.65572926 208.23029142 -147.77490234 202.24682617 C-125.02547147 192.30236808 -125.02547147 192.30236808 -108.24316406 175.59863281 C-107.58316406 175.59863281 -106.92316406 175.59863281 -106.24316406 175.59863281 C-105.60229876 205.926351 -108.6812871 234.07235742 -122.24316406 261.59863281 C-122.72527344 262.58992188 -123.20738281 263.58121094 -123.70410156 264.60253906 C-137.77442784 291.92695722 -160.81719792 308.38188168 -187.93066406 321.16113281 C-199.31687523 326.53681294 -208.9146691 331.97062052 -218.14941406 340.68066406 C-220.24316406 342.59863281 -220.24316406 342.59863281 -223.24316406 344.59863281 C-221.32415898 338.26001574 -218.90689734 332.44679595 -215.80566406 326.59863281 C-215.3724585 325.78048096 -214.93925293 324.9623291 -214.49291992 324.11938477 C-209.77705073 315.43216914 -204.19427784 307.47522238 -198.24316406 299.59863281 C-197.78296875 298.98681152 -197.32277344 298.37499023 -196.84863281 297.74462891 C-190.70025639 289.62283628 -184.12407918 281.90414894 -177.41503906 274.24316406 C-172.92682823 269.10967017 -168.58220767 263.85837642 -164.24316406 258.59863281 C-164.67089111 258.96649902 -165.09861816 259.33436523 -165.53930664 259.71337891 C-168.5360143 262.28690147 -171.53840947 264.85219107 -174.56738281 267.38769531 C-186.26051223 277.21597961 -196.86543626 287.49778986 -206.24316406 299.59863281 C-207.005 300.56671875 -207.76683594 301.53480469 -208.55175781 302.53222656 C-218.82180993 315.31641148 -218.82180993 315.31641148 -222.82519531 330.68847656 C-223.39751821 334.67334161 -224.88892978 338.08483987 -226.43066406 341.78613281 C-229.41523535 349.01577226 -231.67580371 356.27240421 -233.61816406 363.84863281 C-233.9936438 365.31272583 -233.9936438 365.31272583 -234.37670898 366.80639648 C-239.3951478 386.86794142 -239.58224289 411.51071745 -234.24316406 431.59863281 C-234.06043945 432.30342773 -233.87771484 433.00822266 -233.68945312 433.734375 C-226.71375357 459.54102704 -211.56162034 480.63058589 -193.24316406 499.59863281 C-193.64148438 498.73882813 -194.03980469 497.87902344 -194.45019531 496.99316406 C-198.05569896 488.94876785 -200.56073049 481.28934926 -202.24316406 472.59863281 C-202.55060547 471.36886719 -202.55060547 471.36886719 -202.86425781 470.11425781 C-207.04861643 451.99165637 -205.12204977 433.28178801 -195.27441406 417.44628906 C-187.03469732 405.89484001 -176.11742159 399.06220034 -163.24316406 393.59863281 C-161.33322022 392.60445012 -159.43612826 391.58500799 -157.55566406 390.53613281 C-154.4786694 388.82572418 -151.40544356 387.14644643 -148.24316406 385.59863281 C-147.27647483 407.05376326 -151.8346958 425.49637222 -165.90722656 442.26660156 C-169.18312538 445.53702229 -172.79464885 448.23916827 -176.51293945 450.98388672 C-183.22965677 455.97288496 -188.87347943 461.37443321 -191.24316406 469.59863281 C-192.79879007 483.59926687 -187.74197307 494.44446679 -179.17285156 505.19628906 C-155.7052687 532.40690933 -117.50808047 546.50651994 -82.53344727 550.44189453 C-76.88225006 550.828641 -71.21734675 550.78333692 -65.55566406 550.78613281 C-64.26982422 550.79837891 -62.98398437 550.810625 -61.65917969 550.82324219 C-31.36324333 550.86916832 -1.37095423 540.85299135 22.75683594 522.59863281 C23.49289062 522.04820312 24.22894531 521.49777344 24.98730469 520.93066406 C33.63424234 513.94062464 40.08626952 504.5056762 45.19433594 494.72363281 C45.51208984 494.13718994 45.82984375 493.55074707 46.15722656 492.9465332 C53.48629659 478.09728567 52.1922371 460.85844918 52.12688088 444.79497623 C52.11541518 441.31015647 52.11968514 437.8253484 52.12162781 434.34051514 C52.12250561 428.49730572 52.11153512 422.65421346 52.09301758 416.81103516 C52.07181812 410.08362805 52.06835164 403.35639176 52.07457954 396.62895799 C52.08029831 390.11438921 52.07460059 383.59987974 52.06340599 377.08531952 C52.0587972 374.33122394 52.05786977 371.57716507 52.05999184 368.82306671 C52.06036472 364.97113942 52.04768103 361.11946694 52.03149414 357.26757812 C52.03397156 356.14314804 52.03644897 355.01871796 52.03900146 353.86021423 C51.92687165 337.05150142 47.50468408 322.21154972 35.95214844 309.63378906 C25.52668122 299.74906184 11.73036996 295.94224185 -2.24316406 294.59863281 C-2.57316406 292.94863281 -2.90316406 291.29863281 -3.24316406 289.59863281 C49.88683594 289.59863281 103.01683594 289.59863281 157.75683594 289.59863281 C157.75683594 290.91863281 157.75683594 292.23863281 157.75683594 293.59863281 C156.52449219 293.87835937 155.29214844 294.15808594 154.02246094 294.44628906 C137.78365006 298.30304773 125.16659656 303.73651603 115.97558594 318.45019531 C112.16184874 325.53552079 110.13799911 332.69917436 108.75683594 340.59863281 C108.58192627 341.54139572 108.4070166 342.48415863 108.22680664 343.45549011 C107.41364162 349.26510806 107.65536279 355.14244336 107.69433594 360.99438477 C107.69949587 362.34863081 107.70408353 363.70287913 107.70814514 365.05712891 C107.71717471 367.96320505 107.72846818 370.86926083 107.74099731 373.77532387 C107.75902864 378.37832493 107.76091241 382.9812434 107.75854492 387.58427429 C107.75817576 388.36308734 107.75780661 389.14190038 107.75742626 389.94431382 C107.75566262 393.15376628 107.7534527 396.36321838 107.75127983 399.57267058 C107.74602799 408.66252153 107.75575398 417.75183568 107.80810547 426.84155273 C107.84966442 434.07687499 107.85927161 441.31145848 107.83199501 448.54685944 C107.81879283 452.36949291 107.82144149 456.1905935 107.86303711 460.0130558 C107.9018665 463.61145759 107.89811921 467.20739392 107.86291313 470.80580902 C107.8548011 472.74100386 107.89101218 474.67622919 107.92897034 476.61106873 C107.81767423 483.3621439 106.97270414 487.10550938 102.39916992 492.21012878 C100.86550163 493.68740054 99.31892364 495.1514451 97.75683594 496.59863281 C96.61245333 497.91536787 95.48331906 499.24580699 94.38183594 500.59863281 C66.99188118 531.80317031 22.91209444 551.33089644 -17.24316406 558.59863281 C-18.20109863 558.77765137 -19.1590332 558.95666992 -20.14599609 559.14111328 C-64.78476227 567.2256216 -110.15072437 562.41332435 -151.24316406 542.59863281 C-151.99388184 542.24043457 -152.74459961 541.88223633 -153.51806641 541.51318359 C-164.905515 536.00475429 -175.13820433 529.18075816 -185.24316406 521.59863281 C-186.64501953 520.54869141 -186.64501953 520.54869141 -188.07519531 519.47753906 C-192.88893793 515.73697331 -197.42791509 511.70370311 -201.93066406 507.59863281 C-202.71521973 506.88707031 -202.71521973 506.88707031 -203.515625 506.16113281 C-211.26129194 498.98578874 -217.59918537 490.6731228 -223.99316406 482.30957031 C-225.72600159 480.0584287 -227.47721807 477.82388315 -229.24316406 475.59863281 C-229.79746094 474.89480469 -230.35175781 474.19097656 -230.92285156 473.46582031 C-238.0885666 464.78110578 -246.65871801 460.73994832 -256.99316406 456.72363281 C-266.03939635 453.07407397 -274.28146092 449.30393551 -282.24316406 443.59863281 C-283.06945312 443.01082031 -283.89574219 442.42300781 -284.74707031 441.81738281 C-303.82054168 427.36685555 -316.26389373 408.95403018 -327.73486328 388.30029297 C-330.21672093 383.85480305 -332.75872543 379.44455881 -335.30566406 375.03613281 C-335.75876953 374.2449707 -336.211875 373.45380859 -336.67871094 372.63867188 C-338.36748999 369.7108569 -340.01685613 366.89923623 -342.05175781 364.19628906 C-343.24316406 362.59863281 -343.24316406 362.59863281 -343.24316406 360.59863281 C-323.38833447 359.22933422 -301.83758445 370.78236662 -286.99316406 383.34863281 C-272.26263482 396.24622822 -262.83733024 412.4653437 -253.71142578 429.52441406 C-249.70328625 436.94392856 -245.29055303 443.84328899 -240.24316406 450.59863281 C-240.70651777 449.00092204 -241.17011318 447.40328136 -241.63378906 445.80566406 C-241.92866211 444.78964111 -242.22353516 443.77361816 -242.52734375 442.72680664 C-243.49916897 439.39051788 -244.48048734 436.05710788 -245.46191406 432.72363281 C-246.42627763 429.43926345 -247.35563446 426.16326353 -248.21191406 422.84863281 C-252.61920014 406.27723718 -262.74352101 391.49445294 -272.11035156 377.35644531 C-285.46112611 357.17995524 -295.3541798 335.80134889 -302.24316406 312.59863281 C-302.44635254 311.9223584 -302.64954102 311.24608398 -302.85888672 310.54931641 C-304.2129086 305.93714247 -305.28518194 301.30480722 -306.24316406 296.59863281 C-306.42508301 295.72835449 -306.60700195 294.85807617 -306.79443359 293.96142578 C-312.72399812 264.53414488 -311.37654675 235.0139694 -306.24316406 205.59863281 C-306.02357555 204.19532026 -305.80576626 202.79172646 -305.59082031 201.38769531 C-302.01925433 180.61191932 -294.26780023 160.55219192 -285.24316406 141.59863281 C-284.89205566 140.85387695 -284.54094727 140.10912109 -284.17919922 139.34179688 C-279.62163472 129.82135522 -274.06251532 121.02012261 -268.24316406 112.22363281 C-267.5907373 111.23693604 -266.93831055 110.25023926 -266.26611328 109.23364258 C-251.82589208 87.81068428 -232.96442788 67.32298885 -212.11962891 51.98339844 C-210.10073469 50.4935249 -208.10433702 48.97590753 -206.10644531 47.45800781 C-176.15460179 24.97989428 -141.64265474 9.96727719 -105.24316406 1.59863281 C-104.13440918 1.33888672 -103.0256543 1.07914062 -101.88330078 0.81152344 C-69.64150557 -6.40588893 -32.30290377 -7.04643849 0 0 Z " fill="#F3EFE7" transform="translate(703.2431640625,348.4013671875)"/>
<path d="M0 0 C0.66 0.33 1.32 0.66 2 1 C0.0884066 3.27527705 -1.82895768 5.54522331 -3.75 7.8125 C-4.28882813 8.45509766 -4.82765625 9.09769531 -5.3828125 9.75976562 C-8.04551111 12.89330729 -10.52373743 15.73030429 -14 18 C-14.33 16.68 -14.66 15.36 -15 14 C-10.05 9.38 -5.1 4.76 0 0 Z " fill="#3E463D" transform="translate(538,606)"/>
<path d="M0 0 C0 0.33 0 0.66 0 1 C-3.10142941 1.70026518 -6.2064641 2.38298456 -9.3125 3.0625 C-10.19357422 3.26166016 -11.07464844 3.46082031 -11.98242188 3.66601562 C-12.82998047 3.84970703 -13.67753906 4.03339844 -14.55078125 4.22265625 C-15.72120972 4.48187866 -15.72120972 4.48187866 -16.9152832 4.74633789 C-19 5 -19 5 -22 4 C-22 3.34 -22 2.68 -22 2 C-14.26758147 -0.11536025 -7.93590615 -1.47957572 0 0 Z " fill="#3F473C" transform="translate(629,360)"/>
<path d="M0 0 C0.66 1.32 1.32 2.64 2 4 C-0.64 6.97 -3.28 9.94 -6 13 C-6.33 12.34 -6.66 11.68 -7 11 C-7.66 10.67 -8.32 10.34 -9 10 C-8.27683594 9.29423828 -8.27683594 9.29423828 -7.5390625 8.57421875 C-6.90742187 7.95160156 -6.27578125 7.32898438 -5.625 6.6875 C-4.68527344 5.76517578 -4.68527344 5.76517578 -3.7265625 4.82421875 C-1.81913393 2.91187472 -1.81913393 2.91187472 0 0 Z " fill="#353D32" transform="translate(521,623)"/>
<path d="M0 0 C0.33 0 0.66 0 1 0 C1.43478214 3.10558674 1.59797636 5.90961797 1 9 C-1.0150581 11.4998841 -3.31799353 13.25532743 -6 15 C-4.36041242 9.76727367 -2.61047965 4.84803364 0 0 Z " fill="#E6E6E3" transform="translate(486,678)"/>
<path d="M0 0 C0.66 0 1.32 0 2 0 C2 9.24 2 18.48 2 28 C1.67 28 1.34 28 1 28 C0.67 20.74 0.34 13.48 0 6 C-0.66 5.67 -1.32 5.34 -2 5 C-1.34 3.35 -0.68 1.7 0 0 Z " fill="#DEDFDA" transform="translate(595,524)"/>
<path d="M0 0 C5.94 0.66 11.88 1.32 18 2 C17.67 2.99 17.34 3.98 17 5 C14.69 4.67 12.38 4.34 10 4 C10 3.34 10 2.68 10 2 C7.36 2.33 4.72 2.66 2 3 C2 2.34 2 1.68 2 1 C1.34 0.67 0.68 0.34 0 0 Z " fill="#575E53" transform="translate(607,908)"/>
<path d="M0 0 C0.66 1.32 1.32 2.64 2 4 C1.1015625 6.359375 1.1015625 6.359375 -0.375 8.75 C-1.09816406 9.94882812 -1.09816406 9.94882812 -1.8359375 11.171875 C-2.22007812 11.77515625 -2.60421875 12.3784375 -3 13 C-3.66 12.01 -4.32 11.02 -5 10 C-3.35 6.7 -1.7 3.4 0 0 Z " fill="#444C40" transform="translate(476,469)"/>
<path d="M0 0 C1.46726798 3.81489674 0.43336419 6.29011622 -1 10 C-2.32 9.34 -3.64 8.68 -5 8 C-4.67 6.35 -4.34 4.7 -4 3 C-3.34 3.33 -2.68 3.66 -2 4 C-1.34 2.68 -0.68 1.36 0 0 Z " fill="#454D41" transform="translate(482,681)"/>
<path d="M0 0 C0 0.33 0 0.66 0 1 C-5.28 1.66 -10.56 2.32 -16 3 C-15.01 2.67 -14.02 2.34 -13 2 C-13 1.34 -13 0.68 -13 0 C-8.37078475 -1.0161692 -4.65537393 -0.83796731 0 0 Z " fill="#5E6359" transform="translate(623,346)"/>
<path d="M0 0 C4.38889325 0.66498383 7.9811485 2.18757677 12 4 C12 4.66 12 5.32 12 6 C7.61110675 5.33501617 4.0188515 3.81242323 0 2 C0 1.34 0 0.68 0 0 Z " fill="#484F46" transform="translate(459,1004)"/>
<path d="M0 0 C0.66 0.99 1.32 1.98 2 3 C0.35 5.31 -1.3 7.62 -3 10 C-3.99 9.67 -4.98 9.34 -6 9 C-4.02 6.03 -2.04 3.06 0 0 Z " fill="#474E45" transform="translate(281,381)"/>
<path d="M0 0 C0.99 0.33 1.98 0.66 3 1 C1.63016497 4.16115776 1.0109362 4.9927092 -2 7 C-2.6875 5.1875 -2.6875 5.1875 -3 3 C-1.5625 1.25 -1.5625 1.25 0 0 Z " fill="#313B2F" transform="translate(526,617)"/>
<path d="M0 0 C0 0.33 0 0.66 0 1 C-3.96 1.66 -7.92 2.32 -12 3 C-12 2.01 -12 1.02 -12 0 C-7.91556885 -1.53166168 -4.20544343 -0.63081652 0 0 Z " fill="#4A5146" transform="translate(619,362)"/>
<path d="M0 0 C0 0.66 0 1.32 0 2 C0.99 2.33 1.98 2.66 3 3 C-2.28 2.34 -7.56 1.68 -13 1 C-13 0.67 -13 0.34 -13 0 C-8.38926889 -1.29676812 -4.66159911 -0.71109139 0 0 Z " fill="#CACBC3" transform="translate(690,357)"/>
<path d="M0 0 C0.66 0.66 1.32 1.32 2 2 C1.79107816 5.27310883 1.56305786 7.32433057 -0.5625 9.875 C-1.036875 10.24625 -1.51125 10.6175 -2 11 C-1.125 3.375 -1.125 3.375 0 0 Z " fill="#474D43" transform="translate(470,707)"/>
<path d="M0 0 C0.75 1.5625 0.75 1.5625 1 4 C-0.13084437 6.50286409 -1.52139516 8.67007722 -3 11 C-3.66 11 -4.32 11 -5 11 C-3.77472971 6.94718288 -2.30119506 3.55639236 0 0 Z " fill="#DBDAD3" transform="translate(492,667)"/>
<path d="M0 0 C0 3.3 0 6.6 0 10 C-2.76223278 7.23776722 -2.57856291 4.79293383 -3 1 C-1 0 -1 0 0 0 Z " fill="#283024" transform="translate(455,732)"/>
<path d="M0 0 C2.43840236 2.43840236 3.62292893 4.85240898 5 8 C4.67 8.66 4.34 9.32 4 10 C1.4375 7.8125 1.4375 7.8125 -1 5 C-0.8125 2.1875 -0.8125 2.1875 0 0 Z " fill="#4E5147" transform="translate(506,839)"/>
<path d="M0 0 C0.66 0.99 1.32 1.98 2 3 C0.47793991 5.62901288 -0.84365964 7.84365964 -3 10 C-3.75 8.375 -3.75 8.375 -4 6 C-2.0625 2.75 -2.0625 2.75 0 0 Z " fill="#4A5145" transform="translate(486,453)"/>
<path d="M0 0 C2.64 0.33 5.28 0.66 8 1 C8 1.66 8 2.32 8 3 C8.99 3.33 9.98 3.66 11 4 C3.49230769 3.38461538 3.49230769 3.38461538 1 1.4375 C0.67 0.963125 0.34 0.48875 0 0 Z " fill="#D9DAD5" transform="translate(694,359)"/>
<path d="M0 0 C3.28788824 3.11016455 5.83735988 6.01618925 8 10 C3.94276923 8.64758974 2.50914581 6.39073758 0 3 C0 2.01 0 1.02 0 0 Z " fill="#E9E7E1" transform="translate(430,748)"/>
<path d="M0 0 C0.66 0.33 1.32 0.66 2 1 C0.515 4.465 0.515 4.465 -1 8 C-1.66 8 -2.32 8 -3 8 C-2.45276317 4.62537285 -1.9451 2.91765 0 0 Z " fill="#353E33" transform="translate(485,664)"/>
<path d="M0 0 C3.16115776 1.36983503 3.9927092 1.9890638 6 5 C5.34 5.66 4.68 6.32 4 7 C0 2.25 0 2.25 0 0 Z " fill="#51584C" transform="translate(908,306)"/>
<path d="M0 0 C0.66 1.32 1.32 2.64 2 4 C0.35 5.65 -1.3 7.3 -3 9 C-2.01 6.03 -1.02 3.06 0 0 Z " fill="#D1D3CE" transform="translate(483,684)"/>
<path d="M0 0 C0.6875 1.6875 0.6875 1.6875 1 4 C-0.3125 6.75 -0.3125 6.75 -2 9 C-2.66 9 -3.32 9 -4 9 C-2.80100302 5.9168649 -1.52299523 2.93720508 0 0 Z " fill="#474E44" transform="translate(269,400)"/>
<path d="M0 0 C2.5 2.3125 2.5 2.3125 5 5 C5 5.99 5 6.98 5 8 C2.5 6.25 2.5 6.25 0 4 C0 2.68 0 1.36 0 0 Z " fill="#E9E8E1" transform="translate(517,846)"/>
<path d="M0 0 C0.99 0 1.98 0 3 0 C3 0.99 3 1.98 3 3 C3.99 3.33 4.98 3.66 6 4 C5 6 5 6 3 7 C2.01 4.69 1.02 2.38 0 0 Z " fill="#4B5247" transform="translate(480,809)"/>
<path d="M0 0 C1.64826111 2.96687001 2.44271087 5.65626525 3 9 C1.29115995 7.37660195 -0.37446717 5.70680947 -2 4 C-2 3.34 -2 2.68 -2 2 C-1.34 2 -0.68 2 0 2 C0 1.34 0 0.68 0 0 Z " fill="#4C5248" transform="translate(461,791)"/>
<path d="M0 0 C0.66 0 1.32 0 2 0 C1.67 2.64 1.34 5.28 1 8 C0.34 8 -0.32 8 -1 8 C-0.67 5.36 -0.34 2.72 0 0 Z " fill="#4F574E" transform="translate(446,548)"/>
<path d="M0 0 C0.66 0.33 1.32 0.66 2 1 C0.84826645 3.46800047 -0.04783565 5.04783565 -2 7 C-2.33 6.01 -2.66 5.02 -3 4 C-1.5625 1.8125 -1.5625 1.8125 0 0 Z " fill="#454D40" transform="translate(501,433)"/>
</svg>
